<svg width="140" height="140" viewBox="0 0 140 140" fill="none" xmlns="http://www.w3.org/2000/svg">
<path d="M15.6167 16.9142H23.3726V56.8856L55.5735 56.894V16.9142H63.3277V56.894H71.9516V71.2894H64.1858V64.6102L15.6167 64.532V16.9142Z" fill="#111827"/>
<path d="M76.9072 16.9142V64.4138H124.197V16.9142H76.9072ZM116.355 57.0321H84.1642V24.4523H116.355V57.0321Z" fill="#111827"/>
<path d="M23.4108 84.4528H55.4853V123.359H63.3277V76.8364H15.6167V123.359H23.4108V84.4528Z" fill="#111827"/>
<path d="M84.1642 84.3746H116.355V123.359H124.197V76.8364H76.9072V123.359H84.1642V84.3746Z" fill="#111827"/>
<path d="M139.844 0H0V140H140L139.844 0ZM7.0242 133.594V7.13859H132.821L132.977 133.594H7.0242Z" fill="#111827"/>
</svg>
