<svg width="140" height="60" viewBox="0 0 140 60" fill="none" xmlns="http://www.w3.org/2000/svg">
<g clip-path="url(#clip0_69_39)">
<path d="M1.01181 0.237305H0V20.3525H1.01181V0.237305Z" fill="#0284C7"/>
<path d="M20.4093 0.0439453H19.3975V20.3524H20.4093V0.0439453Z" fill="#0284C7"/>
<path d="M20.389 0.0439453H0V1.05395H20.389V0.0439453Z" fill="#0284C7"/>
<path d="M20.4094 19.4033H0V20.4133H20.4094V19.4033Z" fill="#0284C7"/>
<path fill-rule="evenodd" clip-rule="evenodd" d="M18.0735 9.38464V2.51123H11.181V9.38464H11.0078H18.0735ZM12.2675 3.61613H16.9361V8.27975H16.987H12.3184H12.3795H12.3592L12.2641 8.27296V3.61613H12.2675Z" fill="#0284C7"/>
<path fill-rule="evenodd" clip-rule="evenodd" d="M3.44952 2.498H2.32227L2.33245 9.39512C2.98096 9.39512 9.22499 9.40191 9.35401 9.40191V10.3712H10.4881V8.29023L9.24197 8.28006V2.49121H8.11811L8.11132 8.28006H3.44273L3.44952 2.498Z" fill="#0284C7"/>
<path fill-rule="evenodd" clip-rule="evenodd" d="M12.2679 12.303H16.9399V17.9291L17.0519 17.9393H18.0739V11.1777H11.144L11.1406 17.9393H12.2679V12.303Z" fill="#0284C7"/>
<path fill-rule="evenodd" clip-rule="evenodd" d="M3.44268 12.303H8.11467L8.11127 17.9291L9.24192 17.9393V11.1777H2.31543V17.9393H3.44268V12.303Z" fill="#0284C7"/>
<path d="M60.4576 0H23.3262V0.915103H60.4576V0Z" fill="#0284C7"/>
<path d="M24.338 0.0341797H23.3262V13.1675H24.338V0.0341797Z" fill="#0284C7"/>
<path d="M60.4571 0.338867H59.4453V13.418H60.4571V0.338867Z" fill="#0284C7"/>
<path d="M112.78 23.3892H0.0986328V24.3992H112.78V23.3892Z" fill="#0284C7"/>
<path d="M112.78 35.0518H0.0986328V36.0618H112.78V35.0518Z" fill="#0284C7"/>
<path d="M1.02548 23.3892H0.0136719V59.9999H1.02548V23.3892Z" fill="#0284C7"/>
<path d="M112.776 23.3926H111.765V36.0176H112.776V23.3926Z" fill="#0284C7"/>
<path d="M70.9112 35.5024H69.8994V47.6326H70.9112V35.5024Z" fill="#0284C7"/>
<path d="M140 46.6226H0.00976562V47.6326H140V46.6226Z" fill="#0284C7"/>
<path d="M105.877 12.1572H23.3262V23.4231H105.877V12.1572Z" fill="#0284C7"/>
<path fill-rule="evenodd" clip-rule="evenodd" d="M54.6444 5.86683C54.9669 5.86683 55.2318 5.78549 55.4355 5.6228C55.6426 5.46351 55.7445 5.24659 55.7445 4.97884C55.7445 4.71109 55.6426 4.49757 55.4355 4.33488C55.2318 4.1722 54.9669 4.09425 54.6444 4.09425H53.0995V5.86683H54.6444ZM53.0995 8.81208H51.9688V3.22998H54.7972C55.4491 3.22998 55.9618 3.39606 56.3386 3.73159C56.7155 4.06713 56.9057 4.48401 56.9057 4.97884C56.9057 5.47028 56.7155 5.88377 56.3386 6.21931C55.9618 6.55823 55.4491 6.72431 54.7972 6.72431H53.0995V8.81208ZM49.0658 8.81208H47.9352V4.09425H45.9863V3.23337H51.0182V4.09425H49.0692V8.81208H49.0658ZM45.0288 8.81208H43.8981V6.3786H40.5469V8.81208H39.4163V3.22998H40.5469V5.51435H43.8981V3.22998H45.0288V8.81208ZM38.2619 8.81208H33.8513V3.22998H38.2619V4.09085H34.9786V5.53807H38.194V6.39894H34.9786V7.94783H38.2619V8.81208ZM31.8617 9.84242V8.81208H26.7822V3.22998H27.9129V7.94783H31.2641V3.22998H32.3947V7.94783H32.9923V9.83903H31.8617V9.84242Z" fill="#0284C7"/>
<path fill-rule="evenodd" clip-rule="evenodd" d="M106.984 26.4093C106.583 26.8974 106.04 27.1448 105.358 27.1448C104.685 27.1448 104.139 26.9007 103.724 26.4093L104.169 26.0771C104.468 26.4432 104.862 26.6262 105.358 26.6262C105.853 26.6262 106.247 26.4432 106.536 26.0771L106.984 26.4093ZM103.724 32.9878H102.675V27.4261H103.762V31.2864L106.926 27.4261H108.043V32.9878H106.957V29.019L103.724 32.9878ZM98.4583 32.2219C99.0695 32.2219 99.5686 32.0321 99.9455 31.6525C100.322 31.2729 100.512 30.7916 100.512 30.2154C100.512 29.6325 100.322 29.1512 99.9455 28.7716C99.5686 28.3954 99.0729 28.2056 98.4583 28.2056C97.8404 28.2056 97.3446 28.3954 96.9678 28.7716C96.5909 29.1512 96.4041 29.6325 96.4041 30.2154C96.4041 30.7984 96.5909 31.2797 96.9678 31.6559C97.3446 32.0321 97.8404 32.2219 98.4583 32.2219ZM100.733 32.2761C100.139 32.8184 99.3818 33.0895 98.4583 33.0895C97.5348 33.0895 96.7776 32.8184 96.1834 32.2761C95.5892 31.7338 95.2939 31.0492 95.2939 30.212C95.2939 29.3749 95.5926 28.6903 96.1834 28.148C96.7776 27.6057 97.5348 27.3346 98.4583 27.3346C99.3818 27.3346 100.139 27.6057 100.733 28.148C101.327 28.6903 101.623 29.3783 101.623 30.212C101.623 31.0458 101.327 31.7338 100.733 32.2761ZM94.2515 32.9878H93.165V30.5611H89.9428V32.9878H88.8563V27.4261H89.9428V29.7003H93.165V27.4261H94.2515V32.9878ZM85.7835 30.3612H84.2964V32.1304H85.7835C86.0925 32.1304 86.3471 32.049 86.5441 31.8897C86.741 31.727 86.8429 31.5135 86.8429 31.2492C86.8429 30.9814 86.7444 30.7679 86.5441 30.6086C86.3471 30.4425 86.0925 30.3612 85.7835 30.3612ZM83.2132 27.4295H84.2998V29.5037H85.9363C86.561 29.5037 87.0534 29.6732 87.4167 30.0087C87.78 30.3442 87.9599 30.7577 87.9599 31.2458C87.9599 31.7406 87.7766 32.1541 87.4167 32.4862C87.0534 32.8184 86.561 32.9878 85.9363 32.9878H83.2166V27.4295H83.2132ZM76.1 33.0861V32.2185C76.4599 32.2185 76.7281 32.0931 76.9081 31.8389C77.0881 31.5847 77.2273 31.0661 77.3257 30.2832L77.689 27.4227H81.8959V32.9845H80.8093V28.2802H78.6635L78.402 30.3476C78.3273 30.9204 78.2221 31.3915 78.0897 31.7643C77.9573 32.1371 77.7841 32.4184 77.5804 32.6015C77.3733 32.7879 77.156 32.9133 76.9319 32.9811C76.7044 33.0556 76.426 33.0861 76.1 33.0861ZM73.8251 31.0628L72.7115 28.4124L71.5978 31.0628H73.8251ZM75.8216 32.9878H74.5857L74.1307 31.9202H71.2888L70.8338 32.9878H69.5979L72.0324 27.4261H73.3871L75.8216 32.9878ZM68.9291 32.9878H67.8425V30.5611H64.6204V32.9878H63.5339V27.4261H64.6204V29.7003H67.8425V27.4261H68.9291V32.9878ZM59.3203 32.2219C59.9314 32.2219 60.4305 32.0321 60.8074 31.6525C61.1843 31.2729 61.3744 30.7916 61.3744 30.2154C61.3744 29.6325 61.1877 29.1512 60.8074 28.7716C60.4305 28.3954 59.9348 28.2056 59.3203 28.2056C58.7023 28.2056 58.2032 28.3954 57.8297 28.7716C57.4562 29.1512 57.2695 29.6325 57.2695 30.2154C57.2695 30.7984 57.4562 31.2797 57.8297 31.6559C58.2032 32.0321 58.6989 32.2219 59.3203 32.2219ZM61.5951 32.2761C61.0009 32.8184 60.2438 33.0895 59.3203 33.0895C58.4001 33.0895 57.6396 32.8184 57.0454 32.2761C56.4512 31.7338 56.1558 31.0492 56.1558 30.212C56.1558 29.3749 56.4546 28.6903 57.0454 28.148C57.6396 27.6057 58.4001 27.3346 59.3203 27.3346C60.2438 27.3346 61.0009 27.6057 61.5951 28.148C62.1893 28.6903 62.4847 29.3783 62.4847 30.212C62.4847 31.0458 62.1893 31.7338 61.5951 32.2761ZM50.7946 32.9878H49.7454V27.4261H50.8319V31.2864L53.9964 27.4261H55.11V32.9878H54.0235V29.019L50.7946 32.9878ZM46.384 33.0861C45.4571 33.0861 44.6829 32.8184 44.0616 32.2829C43.4436 31.7474 43.1313 31.056 43.1313 30.212C43.1313 29.3681 43.4402 28.6767 44.0616 28.1412C44.6795 27.6057 45.4537 27.3346 46.384 27.3346C47.4603 27.3346 48.2922 27.7514 48.8728 28.5852L47.9459 29.0089C47.7897 28.7716 47.5724 28.575 47.2906 28.4259C47.0088 28.2768 46.7066 28.2022 46.384 28.2022C45.7728 28.2022 45.2635 28.392 44.8561 28.7682C44.4487 29.1478 44.2483 29.6291 44.2483 30.212C44.2483 30.795 44.4521 31.2763 44.8561 31.6525C45.2601 32.0321 45.7694 32.2185 46.384 32.2185C46.7134 32.2185 47.0155 32.1439 47.294 31.9948C47.5724 31.8457 47.7897 31.6491 47.9459 31.4118L48.8728 31.8355C48.2786 32.6693 47.4501 33.0861 46.384 33.0861ZM40.0517 33.0861C39.1248 33.0861 38.3506 32.8184 37.7293 32.2829C37.1113 31.7474 36.8024 31.056 36.8024 30.212C36.8024 29.3681 37.1113 28.6767 37.7293 28.1412C38.3506 27.6057 39.1214 27.3346 40.0517 27.3346C41.1314 27.3346 41.9599 27.7514 42.5405 28.5852L41.6136 29.0089C41.4574 28.7716 41.2401 28.575 40.9583 28.4259C40.6764 28.2768 40.3743 28.2022 40.0517 28.2022C39.4405 28.2022 38.9312 28.392 38.5238 28.7682C38.1164 29.1478 37.916 29.6291 37.916 30.212C37.916 30.795 38.1198 31.2763 38.5238 31.6525C38.9278 32.0321 39.4371 32.2185 40.0517 32.2185C40.3811 32.2185 40.6832 32.1439 40.9617 31.9948C41.2401 31.8457 41.4574 31.6491 41.6102 31.4118L42.5371 31.8355C41.9463 32.6693 41.1144 33.0861 40.0517 33.0861ZM35.9671 32.9878H31.7229V27.4261H35.9671V28.2836H32.8094V29.7274H35.9026V30.5849H32.8094V32.127H35.9671V32.9878ZM25.2854 29.3037C24.9696 29.5444 24.8134 29.846 24.8134 30.212C24.8134 30.5781 24.9696 30.8831 25.2854 31.1204C25.6011 31.361 26.0527 31.5067 26.6435 31.5644V28.8631C26.0561 28.9173 25.6011 29.0631 25.2854 29.3037ZM29.5601 30.212C29.5601 29.846 29.4039 29.541 29.0848 29.3037C28.769 29.0665 28.3174 28.9173 27.73 28.8631V31.5644C28.3174 31.5101 28.769 31.3644 29.0848 31.1271C29.4005 30.8899 29.5601 30.5849 29.5601 30.212ZM27.73 32.9878H26.6435V32.4388C25.72 32.371 25.0002 32.1439 24.4773 31.7508C23.9578 31.3576 23.6964 30.8458 23.6964 30.212C23.6964 29.5816 23.9578 29.0733 24.4773 28.6801C24.9968 28.287 25.72 28.0599 26.6435 27.9921V27.4261H27.73V27.9853C28.6468 28.0531 29.3666 28.2836 29.8895 28.6767C30.4123 29.0699 30.6738 29.5816 30.6738 30.212C30.6738 30.8458 30.4123 31.3576 29.8895 31.7508C29.3666 32.1439 28.6468 32.371 27.73 32.4388V32.9878ZM19.7612 32.2219C20.3757 32.2219 20.868 32.0321 21.2483 31.6525C21.6252 31.2729 21.8153 30.7916 21.8153 30.2154C21.8153 29.6325 21.6286 29.1512 21.2483 28.7716C20.8714 28.3954 20.3757 28.2056 19.7612 28.2056C19.1432 28.2056 18.6441 28.3954 18.2706 28.7716C17.8971 29.1512 17.707 29.6325 17.707 30.2154C17.707 30.7984 17.8937 31.2797 18.2706 31.6559C18.6441 32.0321 19.1432 32.2219 19.7612 32.2219ZM22.036 32.2761C21.4419 32.8184 20.6813 33.0895 19.7612 33.0895C18.8376 33.0895 18.0805 32.8184 17.4863 32.2761C16.8921 31.7338 16.5967 31.0492 16.5967 30.212C16.5967 29.3749 16.8955 28.6903 17.4863 28.148C18.0805 27.6057 18.841 27.3346 19.7612 27.3346C20.6813 27.3346 21.4419 27.6057 22.036 28.148C22.6302 28.6903 22.9256 29.3783 22.9256 30.212C22.9256 31.0458 22.6302 31.7338 22.036 32.2761ZM13.8023 30.0527C14.1113 30.0527 14.366 29.9714 14.5629 29.8121C14.7598 29.6494 14.8617 29.4359 14.8617 29.1715C14.8617 28.9038 14.7632 28.6903 14.5629 28.531C14.366 28.3683 14.1113 28.2869 13.8023 28.2869H12.3152V30.0561H13.8023V30.0527ZM12.3152 32.9878H11.2287V27.4261H13.9483C14.5731 27.4261 15.0654 27.5921 15.4287 27.9243C15.792 28.2564 15.972 28.6733 15.972 29.1682C15.972 29.6562 15.792 30.0697 15.4287 30.4052C15.0654 30.7408 14.5731 30.9102 13.9483 30.9102H12.3152V32.9878ZM9.90789 32.9878H8.82137V28.2836H5.5992V32.9878H4.5127V27.4261H9.90789V32.9878Z" fill="#0284C7"/>
<path fill-rule="evenodd" clip-rule="evenodd" d="M61.7241 44.0063H60.675V38.4445H61.7615V42.3049L64.9293 38.4445H66.043V44.0063H64.9565V40.0375L61.7241 44.0063ZM59.9518 44.0063H58.614L56.5361 41.6643L55.9962 42.2303V44.0063H54.9097V38.4445H55.9962V41.0949L58.4205 38.4445H59.765L57.2491 41.0712L59.9518 44.0063ZM51.7622 43.1488C52.061 43.1488 52.2919 43.081 52.4583 42.9421C52.6246 42.8065 52.7095 42.6167 52.7095 42.3727C52.7095 42.1558 52.6246 41.9761 52.4583 41.827C52.2919 41.6779 52.061 41.6067 51.7622 41.6067H49.9797V43.1488H51.7622ZM51.7147 40.7492C51.9863 40.7492 52.2002 40.6814 52.3564 40.5493C52.5126 40.4171 52.5873 40.2442 52.5873 40.0341C52.5873 39.8172 52.5092 39.6409 52.3564 39.5088C52.2002 39.3732 51.9863 39.3088 51.7147 39.3088H49.9797V40.7492H51.7147ZM52.0203 44.0063H48.8932V38.4445H51.9388C52.4888 38.4445 52.92 38.5801 53.2358 38.8479C53.5482 39.1156 53.7044 39.4545 53.7044 39.8613C53.7044 40.1934 53.6025 40.4781 53.3954 40.7086C53.1883 40.939 52.9336 41.0814 52.628 41.139C52.9608 41.1831 53.246 41.339 53.4769 41.6033C53.7077 41.8677 53.8232 42.1693 53.8232 42.5083C53.8232 42.9523 53.6636 43.3149 53.3444 43.5928C53.0253 43.8674 52.5839 44.0063 52.0203 44.0063ZM44.6761 43.2403C45.2873 43.2403 45.783 43.0505 46.1633 42.6709C46.5402 42.2913 46.7303 41.8101 46.7303 41.2305C46.7303 40.6476 46.5436 40.1663 46.1633 39.7901C45.7864 39.4105 45.2907 39.2241 44.6761 39.2241C44.0582 39.2241 43.5591 39.4105 43.1856 39.7901C42.8121 40.1663 42.6254 40.6509 42.6254 41.2305C42.6254 41.8135 42.8121 42.2947 43.1856 42.6743C43.5591 43.0505 44.0548 43.2403 44.6761 43.2403ZM46.951 43.2946C46.3568 43.8368 45.5963 44.108 44.6761 44.108C43.756 44.108 42.9955 43.8368 42.4013 43.2946C41.8071 42.7523 41.5117 42.0643 41.5117 41.2305C41.5117 40.3968 41.8105 39.7087 42.4013 39.1665C42.9955 38.6242 43.7526 38.353 44.6761 38.353C45.5963 38.353 46.3568 38.6242 46.951 39.1665C47.5452 39.7087 47.8406 40.3968 47.8406 41.2305C47.8406 42.0643 47.5452 42.7523 46.951 43.2946ZM39.2232 44.0063H38.1367V39.3054H36.2625V38.4445H41.1009V39.3054H39.2266V44.0063H39.2232ZM32.677 43.2403C33.2882 43.2403 33.7839 43.0505 34.1642 42.6709C34.5411 42.2913 34.7312 41.8101 34.7312 41.2305C34.7312 40.6476 34.5411 40.1663 34.1642 39.7901C33.7873 39.4105 33.2916 39.2241 32.677 39.2241C32.0591 39.2241 31.56 39.4105 31.1865 39.7901C30.8096 40.1663 30.6228 40.6509 30.6228 41.2305C30.6228 41.8135 30.8096 42.2947 31.1865 42.6743C31.5634 43.0505 32.0591 43.2403 32.677 43.2403ZM34.9553 43.2946C34.3611 43.8368 33.6006 44.108 32.6804 44.108C31.7603 44.108 30.9997 43.8368 30.4055 43.2946C29.8114 42.7523 29.516 42.0643 29.516 41.2305C29.516 40.3968 29.8148 39.7087 30.4055 39.1665C30.9997 38.6242 31.7603 38.353 32.6804 38.353C33.6039 38.353 34.3611 38.6242 34.9553 39.1665C35.5495 39.7087 35.8449 40.3968 35.8449 41.2305C35.8449 42.0643 35.5495 42.7523 34.9553 43.2946ZM25.8897 44.0063H24.8032V38.4445H29.0474V39.3054H25.8897V44.0063ZM19.9106 41.3729C19.8053 42.1964 19.5337 42.7896 19.0923 43.1488H22.3145V39.3054H20.1686L19.9106 41.3729ZM17.6085 45.0333V43.2403C17.8564 43.2166 18.0499 43.1624 18.1823 43.0743C18.3181 42.9861 18.4438 42.8031 18.5592 42.5252C18.6746 42.2473 18.7663 41.8406 18.8342 41.3085L19.1975 38.4479H23.4044V43.1522H23.9816V45.0366H22.8951V44.0097H18.6984V45.0366H17.6085V45.0333ZM14.1181 43.2403C14.7293 43.2403 15.225 43.0505 15.6053 42.6709C15.9821 42.2913 16.1723 41.8101 16.1723 41.2305C16.1723 40.6476 15.9855 40.1663 15.6053 39.7901C15.2284 39.4105 14.7327 39.2241 14.1181 39.2241C13.4968 39.2241 13.001 39.4105 12.6276 39.7901C12.2541 40.1663 12.0673 40.6509 12.0673 41.2305C12.0673 41.8135 12.2541 42.2947 12.6276 42.6743C13.001 43.0505 13.4968 43.2403 14.1181 43.2403ZM16.3896 43.2946C15.7954 43.8368 15.0382 44.108 14.1147 44.108C13.1912 44.108 12.434 43.8368 11.8398 43.2946C11.2457 42.7523 10.9469 42.0643 10.9469 41.2305C10.9469 40.3968 11.2457 39.7087 11.8398 39.1665C12.434 38.6242 13.1912 38.353 14.1147 38.353C15.0348 38.353 15.7954 38.6242 16.3896 39.1665C16.9838 39.7087 17.2792 40.3968 17.2792 41.2305C17.2826 42.0643 16.9838 42.7523 16.3896 43.2946ZM9.90789 44.0063H8.82137V39.3054H5.5992V44.0063H4.5127V38.4445H9.90789V44.0063Z" fill="#0284C7"/>
<path fill-rule="evenodd" clip-rule="evenodd" d="M100.176 14.5363C99.7757 15.0243 99.2325 15.2683 98.55 15.2683C97.8743 15.2683 97.3311 15.0243 96.9168 14.5363L97.3616 14.2041C97.6604 14.5701 98.0543 14.7532 98.55 14.7532C99.0457 14.7532 99.4396 14.5701 99.7282 14.2041L100.176 14.5363ZM96.9202 21.1114H95.8711V15.5496H96.9576V19.41L100.122 15.5496H101.236V21.1114H100.149V17.1426L96.9202 21.1114ZM94.754 21.1114H90.5098V15.5496H94.754V16.4105H91.5964V17.8509H94.6861V18.7084H91.5964V20.2505H94.754V21.1114ZM88.0211 15.553H89.1076V20.2573H89.6814V22.1417H88.5949V21.1148H81.5767V15.553H82.6632V20.2573H84.7989V15.553H85.8854V20.2573H88.0211V15.553ZM77.3631 20.3454C77.9743 20.3454 78.47 20.1556 78.8503 19.7727C79.2271 19.3931 79.4173 18.9118 79.4173 18.3356C79.4173 17.7527 79.2305 17.2714 78.8503 16.8952C78.4734 16.5156 77.9776 16.3292 77.3631 16.3292C76.7451 16.3292 76.2494 16.5156 75.8725 16.8952C75.4991 17.2714 75.3123 17.7527 75.3123 18.3356C75.3123 18.9186 75.4991 19.3998 75.8725 19.7794C76.246 20.1556 76.7417 20.3454 77.3631 20.3454ZM77.3631 21.2131C76.5075 21.2131 75.7945 20.9792 75.2138 20.5115C74.6366 20.0438 74.3039 19.4371 74.2156 18.6847H73.2412V21.1114H72.1546V15.5496H73.2412V17.8272H74.236C74.3616 17.1256 74.7079 16.5563 75.2784 16.119C75.8454 15.6818 76.5448 15.4615 77.3665 15.4615C78.29 15.4615 79.0472 15.7327 79.6414 16.2749C80.2355 16.8172 80.5309 17.5019 80.5309 18.339C80.5309 19.1761 80.2322 19.8608 79.6414 20.4031C79.0438 20.9419 78.2832 21.2131 77.3631 21.2131ZM69.4791 19.1863L68.3654 16.5359L67.2518 19.1863H69.4791ZM71.4756 21.1114H70.2397L69.7847 20.0438H66.9428L66.4878 21.1114H65.2519L67.6864 15.5496H69.0411L71.4756 21.1114ZM57.9825 21.1114H56.6447L59.3474 18.1763L56.8315 15.5496H58.176L60.3694 17.9526V15.5496H61.4559V17.9526L63.6459 15.5496H64.9939L62.4779 18.1763L65.1806 21.1114H63.8429L61.7649 18.7694L61.4593 19.0948V21.1114H60.3728V19.0948L60.0672 18.7694L57.9825 21.1114ZM56.1252 21.1114H51.8811V15.5496H56.1252V16.4105H52.9676V17.8509H56.0607V18.7084H52.9676V20.2505H56.1252V21.1114ZM48.8083 18.1797C49.1173 18.1797 49.3719 18.0984 49.5689 17.9391C49.7658 17.7764 49.8676 17.5629 49.8676 17.2951C49.8676 17.0273 49.7692 16.8138 49.5689 16.6545C49.3719 16.4919 49.1173 16.4139 48.8083 16.4139H47.3211V18.1797H48.8083ZM47.3245 21.1114H46.238V15.5496H48.9577C49.5824 15.5496 50.0782 15.7157 50.4381 16.0512C50.8014 16.3868 50.9813 16.7969 50.9813 17.2917C50.9813 17.7832 50.8014 18.1933 50.4381 18.5288C50.0748 18.8643 49.5824 19.0338 48.9577 19.0338H47.3245V21.1114ZM45.121 21.1114H40.8768V15.5496H45.121V16.4105H41.9633V17.8509H45.0564V18.7084H41.9633V20.2505H45.121V21.1114ZM39.5594 21.1114H38.4729V16.4105H35.2507V21.1114H34.1642V15.5496H39.5594V21.1114ZM29.9472 20.3454C30.5617 20.3454 31.0575 20.1556 31.4343 19.7727C31.8112 19.3931 32.0014 18.9118 32.0014 18.3356C32.0014 17.7527 31.8112 17.2714 31.4343 16.8952C31.0575 16.5156 30.5617 16.3292 29.9472 16.3292C29.3292 16.3292 28.8301 16.5156 28.4566 16.8952C28.0798 17.2714 27.893 17.7527 27.893 18.3356C27.893 18.9186 28.0798 19.3998 28.4566 19.7794C28.8335 20.1556 29.3292 20.3454 29.9472 20.3454ZM32.2255 20.3997C31.6313 20.9419 30.8707 21.2131 29.9506 21.2131C29.0304 21.2131 28.2699 20.9419 27.6757 20.3997C27.0815 19.8574 26.7861 19.1694 26.7861 18.3356C26.7861 17.5018 27.0849 16.8138 27.6757 16.2715C28.2699 15.7293 29.0304 15.4581 29.9506 15.4581C30.8741 15.4581 31.6313 15.7293 32.2255 16.2715C32.8196 16.8138 33.115 17.4985 33.115 18.3356C33.115 19.1728 32.8196 19.8574 32.2255 20.3997Z" fill="#F1F5F9"/>
<path fill-rule="evenodd" clip-rule="evenodd" d="M133.725 58.0645L133.121 57.6477C133.45 57.1088 133.691 56.5868 133.844 56.0818C134 55.5768 134.075 55.0074 134.075 54.3804C134.075 53.7534 133.997 53.1874 133.844 52.6824C133.691 52.1774 133.45 51.6521 133.121 51.1064L133.725 50.6997C134.167 51.1843 134.51 51.7503 134.761 52.4011C135.012 53.0518 135.138 53.7127 135.138 54.3872C135.138 55.0616 135.012 55.7226 134.761 56.3767C134.51 57.0206 134.167 57.5866 133.725 58.0645ZM129.732 53.4721H131.219V51.7063H129.732C129.423 51.7063 129.169 51.7876 128.972 51.9469C128.771 52.1096 128.673 52.3231 128.673 52.5875C128.673 52.8552 128.771 53.0688 128.972 53.2315C129.169 53.3908 129.423 53.4721 129.732 53.4721ZM128.768 56.4038H127.512L129.026 54.2177C128.619 54.1567 128.269 53.9873 127.987 53.7059C127.702 53.4246 127.559 53.0518 127.559 52.5841C127.559 52.0689 127.746 51.6487 128.116 51.3267C128.486 51.0047 128.975 50.8454 129.583 50.8454H132.303V56.4072H131.216V54.333H130.14L128.768 56.4038ZM122.157 56.4038H121.108V50.8454H122.195V54.7058L125.359 50.8454H126.473V56.4072H125.386V52.4384L122.157 56.4038ZM118.31 56.4038H117.224V51.7029H115.35V50.842H120.188V51.7029H118.314V56.4038H118.31ZM110.576 56.5055C110.318 56.5055 110.067 56.4648 109.825 56.3902C109.584 56.3123 109.411 56.2242 109.306 56.1225L109.696 55.3226C109.961 55.5328 110.233 55.6378 110.505 55.6378C110.746 55.6378 110.936 55.587 111.075 55.4819C111.214 55.3802 111.36 55.1938 111.516 54.9295L109.187 50.8454H110.423L112.131 54.0889L113.842 50.8454H115.078L112.498 55.3633C112.28 55.7429 112.029 56.0276 111.744 56.2174C111.452 56.4072 111.065 56.5055 110.576 56.5055ZM109.109 56.4038H107.771L105.693 54.0618L105.153 54.6278V56.4038H104.067V50.8454H105.153V53.4958L107.578 50.8454H108.926L106.41 53.4721L109.109 56.4038ZM100.176 53.4721H101.663V51.7063H100.176C99.8669 51.7063 99.6123 51.7876 99.4153 51.9469C99.215 52.1096 99.1165 52.3231 99.1165 52.5875C99.1165 52.8552 99.215 53.0688 99.4153 53.2315C99.6123 53.3908 99.8669 53.4721 100.176 53.4721ZM99.2116 56.4038H97.9553L99.4697 54.2177C99.0622 54.1567 98.7125 53.9873 98.4273 53.7059C98.1421 53.4246 97.9995 53.0518 97.9995 52.5841C97.9995 52.0689 98.1862 51.6487 98.5563 51.3267C98.9298 51.0047 99.4153 50.8454 100.023 50.8454H102.743V56.4072H101.656V54.333H100.58L99.2116 56.4038ZM97.4087 57.6477L96.8043 58.0645C96.3663 57.5866 96.0234 57.0206 95.7721 56.3699C95.5243 55.7158 95.402 55.0549 95.402 54.3804C95.402 53.7127 95.5243 53.0552 95.7721 52.4011C96.02 51.747 96.3629 51.1776 96.8043 50.6963L97.4087 51.103C97.0895 51.6487 96.8484 52.174 96.6923 52.679C96.5395 53.184 96.4614 53.75 96.4614 54.377C96.4614 55.004 96.5395 55.5734 96.6923 56.0784C96.8484 56.5868 97.0895 57.1088 97.4087 57.6477ZM90.6112 54.4787L89.4975 51.8283L88.3839 54.4787H90.6112ZM92.6077 56.4038H91.3718L90.9168 55.3362H88.0749L87.6199 56.4038H86.384L88.8151 50.842H90.1698L92.6077 56.4038ZM86.3399 56.4038H85.0395L83.301 54.2279L81.566 56.4038H80.2656L82.588 53.5534L80.4048 50.842H81.7052L83.301 52.8857L84.8901 50.842H86.1973L84.0243 53.5433L86.3399 56.4038ZM78.225 54.4787L77.1114 51.8283L75.9977 54.4787H78.225ZM80.2215 56.4038H78.9856L78.5306 55.3362H75.6887L75.2337 56.4038H73.9978L76.4289 50.842H77.787L80.2215 56.4038ZM71.3359 56.5055C70.409 56.5055 69.6314 56.2377 69.0135 55.6988C68.3955 55.1633 68.0865 54.4719 68.0865 53.628C68.0865 52.7841 68.3955 52.0927 69.0135 51.5572C69.6314 51.0217 70.409 50.7505 71.3359 50.7505C72.4122 50.7505 73.2407 51.1674 73.8247 52.0012L72.8977 52.4282C72.7416 52.1876 72.5243 51.9944 72.2424 51.8452C71.9606 51.6927 71.6584 51.6216 71.3393 51.6216C70.7281 51.6216 70.2188 51.8114 69.8114 52.1876C69.4039 52.5638 69.2036 53.045 69.2036 53.628C69.2036 54.2109 69.4073 54.6922 69.8114 55.0718C70.2188 55.448 70.7281 55.6378 71.3393 55.6378C71.6686 55.6378 71.9708 55.5633 72.2492 55.4141C72.5276 55.265 72.7449 55.0684 72.8977 54.8312L73.8247 55.2548C73.2305 56.0886 72.402 56.5055 71.3359 56.5055ZM60.3418 56.4038H59.2926V50.8454H60.3791V54.7058L63.547 50.8454H64.6606V56.4072H63.5741V52.4384L60.3418 56.4038ZM58.566 56.4038H57.2283L55.1503 54.0618L54.6105 54.6278V56.4038H53.5239V50.8454H54.6105V53.4958L57.0347 50.8454H58.3827L55.8667 53.4721L58.566 56.4038ZM47.8877 56.4038H46.8385V50.8454H47.925V54.7058L51.0895 50.8454H52.2031V56.4072H51.1166V52.4384L47.8877 56.4038ZM39.7253 56.5055V55.6378C40.0852 55.6378 40.3534 55.509 40.5334 55.2582C40.7133 55.004 40.8525 54.4889 40.951 53.7026L41.3143 50.842H45.5211V56.4038H44.4346V51.7029H42.2888L42.0273 53.7703C41.9526 54.3431 41.8508 54.8176 41.7149 55.1871C41.5825 55.5599 41.4128 55.8378 41.2056 56.0242C40.9985 56.2106 40.7812 56.336 40.5571 56.4038C40.333 56.4716 40.0546 56.5055 39.7253 56.5055ZM37.0532 53.7805H35.566V55.5463H37.0532C37.3621 55.5463 37.6168 55.465 37.8137 55.3057C38.0106 55.143 38.1125 54.9295 38.1125 54.6617C38.1125 54.394 38.014 54.1804 37.8137 54.0211C37.6168 53.8585 37.3621 53.7805 37.0532 53.7805ZM34.4795 50.8454H38.7237V51.7063H35.566V52.923H37.1992C37.8239 52.923 38.3196 53.0925 38.6795 53.428C39.0428 53.7636 39.2228 54.1771 39.2228 54.6651C39.2228 55.1599 39.0428 55.5734 38.6795 55.9056C38.3162 56.2411 37.8239 56.4072 37.1992 56.4072H34.4795V50.8454ZM29.3084 56.5055C29.0469 56.5055 28.7991 56.4648 28.558 56.3902C28.3169 56.3123 28.1438 56.2242 28.0385 56.1225L28.429 55.3226C28.6972 55.5328 28.9655 55.6378 29.2371 55.6378C29.4781 55.6378 29.6683 55.587 29.8075 55.4819C29.9467 55.3802 30.0927 55.1938 30.2489 54.9295L27.9197 50.8454H29.1556L30.8635 54.0889L32.5713 50.8454H33.8072L31.2267 55.3633C31.0094 55.7429 30.7582 56.0276 30.473 56.2174C30.1844 56.4072 29.7973 56.5055 29.3084 56.5055ZM27.2474 56.4038H26.1609V51.7029H22.9387V56.4038H21.8522V50.8454H27.2474V56.4038ZM18.4908 56.5055C17.5605 56.5055 16.7898 56.2377 16.1684 55.6988C15.5471 55.1633 15.2415 54.4719 15.2415 53.628C15.2415 52.7841 15.5505 52.0927 16.1684 51.5572C16.7864 51.0217 17.5605 50.7505 18.4908 50.7505C19.5672 50.7505 20.3956 51.1674 20.9796 52.0012L20.0527 52.4282C19.8965 52.1876 19.6792 51.9944 19.3974 51.8452C19.1156 51.6927 18.8134 51.6216 18.4942 51.6216C17.8797 51.6216 17.3738 51.8114 16.9663 52.1876C16.5623 52.5638 16.3586 53.045 16.3586 53.628C16.3586 54.2109 16.5623 54.6922 16.9663 55.0718C17.3738 55.448 17.8797 55.6378 18.4942 55.6378C18.8202 55.6378 19.1258 55.5633 19.4042 55.4141C19.6826 55.265 19.8999 55.0684 20.0527 54.8312L20.9796 55.2548C20.3854 56.0886 19.5536 56.5055 18.4908 56.5055ZM14.4028 56.4038H10.1587V50.8454H14.4028V51.7063H11.2452V53.1467H14.3383V54.0042H11.2452V55.5463H14.4028V56.4038ZM7.0859 53.4721C7.39487 53.4721 7.64952 53.3908 7.84645 53.2315C8.04338 53.0688 8.14524 52.8552 8.14524 52.5875C8.14524 52.3197 8.04678 52.1062 7.84645 51.9469C7.64952 51.7876 7.39487 51.7063 7.0859 51.7063H5.59874V53.4721H7.0859ZM5.60213 56.4038H4.51562V50.8454H7.23529C7.86003 50.8454 8.35575 51.0115 8.71566 51.347C9.07896 51.6826 9.25891 52.096 9.25891 52.5875C9.25891 53.0789 9.07896 53.489 8.71566 53.8246C8.35236 54.1601 7.86003 54.3296 7.23529 54.3296H5.60213V56.4038Z" fill="#0284C7"/>
<path d="M140 58.9902H0.00976562V60.0002H140V58.9902Z" fill="#0284C7"/>
<path d="M140 46.7954H138.988V59.9999H140V46.7954Z" fill="#0284C7"/>
</g>
<defs>
<clipPath id="clip0_69_39">
<rect width="140" height="60" fill="white"/>
</clipPath>
</defs>
</svg>
