<?xml version="1.0" encoding="utf-8"?>
<!-- Generator: Adobe Illustrator 26.0.3, SVG Export Plug-In . SVG Version: 6.00 Build 0)  -->
<svg version="1.1" id="Layer_1" xmlns="http://www.w3.org/2000/svg" xmlns:xlink="http://www.w3.org/1999/xlink" x="0px" y="0px"
	 viewBox="0 0 841.89 840.95" style="enable-background:new 0 0 841.89 840.95;" xml:space="preserve">
<style type="text/css">
	.st0{fill:#FFFFFF;}
</style>
<g>
	<g>
		<polygon class="st0" points="93.91,101.6 140.55,101.6 140.55,341.7 334.19,341.75 334.19,101.6 380.82,101.6 380.82,341.75 
			432.68,341.75 432.68,428.22 385.98,428.22 385.98,388.1 93.91,387.63 		"/>
		<path class="st0" d="M462.48,101.6v285.32h284.38V101.6H462.48z M699.7,342.58H506.12V146.88H699.7V342.58z"/>
		<polygon class="st0" points="140.78,507.29 333.66,507.29 333.66,740.99 380.82,740.99 380.82,461.54 93.91,461.54 93.91,740.99 
			140.78,740.99 		"/>
		<polygon class="st0" points="506.12,506.82 699.7,506.82 699.7,740.99 746.86,740.99 746.86,461.54 462.48,461.54 462.48,740.99 
			506.12,740.99 		"/>
	</g>
	<path class="st0" d="M840.95,0H0v840.95h841.89L840.95,0z M42.24,802.47V42.88h756.48l0.94,759.59H42.24z"/>
</g>
</svg>
